<svg width="48" height="48" viewBox="0 0 48 48" fill="none" xmlns="http://www.w3.org/2000/svg">
<path d="M6 12H10H42" stroke="#E73F5D" stroke-width="4" stroke-linecap="round" stroke-linejoin="round"/>
<path d="M15.9995 12.0001V8.00012C15.9995 6.93926 16.4209 5.92184 17.1711 5.17169C17.9212 4.42155 18.9386 4.00012 19.9995 4.00012H27.9995C29.0604 4.00012 30.0778 4.42155 30.8279 5.17169C31.5781 5.92184 31.9995 6.93926 31.9995 8.00012V12.0001M37.9995 12.0001V40.0001C37.9995 41.061 37.5781 42.0784 36.8279 42.8285C36.0778 43.5787 35.0604 44.0001 33.9995 44.0001H13.9995C12.9386 44.0001 11.9212 43.5787 11.1711 42.8285C10.4209 42.0784 9.99951 41.061 9.99951 40.0001V12.0001H37.9995Z" stroke="#E73F5D" stroke-width="4" stroke-linecap="round" stroke-linejoin="round"/>
</svg>
